<?xml version="1.0" encoding="utf-8"?>
<!-- Generator: Adobe Illustrator 16.0.0, SVG Export Plug-In . SVG Version: 6.00 Build 0)  -->
<!DOCTYPE svg PUBLIC "-//W3C//DTD SVG 1.1//EN" "http://www.w3.org/Graphics/SVG/1.1/DTD/svg11.dtd">
<svg version="1.1" id="Layer_1" xmlns="http://www.w3.org/2000/svg" xmlns:xlink="http://www.w3.org/1999/xlink" x="0px" y="0px"
	 width="35px" height="35px" viewBox="280.14 0 35 35" enable-background="new 280.14 0 35 35" xml:space="preserve">
<path fill="#FFFFFF" d="M301.963,17.98c-0.274-0.274-0.274-0.686,0-0.96l10.294-10.293c0.274-0.274,0.41-0.686,0.41-0.96
	s-0.136-0.686-0.41-0.961l-1.922-1.921c-0.274-0.274-0.687-0.412-0.961-0.412c-0.411,0-0.686,0.137-0.96,0.412L298.12,13.177
	c-0.274,0.274-0.686,0.274-0.96,0L286.866,2.884c-0.274-0.274-0.686-0.412-0.96-0.412s-0.687,0.137-0.961,0.412l-1.922,1.921
	c-0.274,0.275-0.411,0.687-0.411,0.961s0.137,0.686,0.411,0.96l10.294,10.293c0.274,0.274,0.274,0.686,0,0.96l-10.294,10.293
	c-0.274,0.274-0.411,0.686-0.411,0.96s0.137,0.687,0.411,0.961l1.922,1.921c0.274,0.274,0.687,0.412,0.961,0.412
	s0.686-0.137,0.96-0.412l10.294-10.293c0.274-0.274,0.686-0.274,0.96,0l10.294,10.293c0.274,0.274,0.686,0.412,0.96,0.412
	s0.687-0.137,0.961-0.412l1.922-1.921c0.274-0.274,0.41-0.687,0.41-0.961s-0.136-0.686-0.41-0.96L301.963,17.98z"/>
</svg>
