<?xml version="1.0" encoding="utf-8"?>
<!-- Generator: Adobe Illustrator 16.0.0, SVG Export Plug-In . SVG Version: 6.00 Build 0)  -->
<!DOCTYPE svg PUBLIC "-//W3C//DTD SVG 1.1//EN" "http://www.w3.org/Graphics/SVG/1.1/DTD/svg11.dtd">
<svg version="1.1" id="Layer_1" xmlns="http://www.w3.org/2000/svg" xmlns:xlink="http://www.w3.org/1999/xlink" x="0px" y="0px"
	 width="35px" height="35px" viewBox="280.14 0 35 35" enable-background="new 280.14 0 35 35" xml:space="preserve">
<g>
	<path fill="#FCFCFC" d="M314.25,5.042c0-0.831-0.554-1.384-1.384-1.384h-30.453c-0.831,0-1.384,0.554-1.384,1.384v2.769
		c0,0.83,0.554,1.383,1.384,1.383h30.453c0.83,0,1.384-0.554,1.384-1.383V5.042z"/>
	<path fill="#FCFCFC" d="M314.25,16.116c0-0.831-0.554-1.384-1.384-1.384h-30.453c-0.831,0-1.384,0.554-1.384,1.384v2.769
		c0,0.831,0.554,1.384,1.384,1.384h30.453c0.83,0,1.384-0.554,1.384-1.384V16.116z"/>
	<path fill="#FCFCFC" d="M314.25,27.19c0-0.831-0.554-1.384-1.384-1.384h-30.453c-0.831,0-1.384,0.554-1.384,1.384v2.768
		c0,0.831,0.554,1.384,1.384,1.384h30.453c0.83,0,1.384-0.554,1.384-1.384V27.19z"/>
</g>
</svg>
